 http://desibbrg.org/images/66952052392581364616.gif 
http://desibbrg.org/images/13940345934928106001.png 
http://desibbrg.org/images/56725235584555902085.png 
http://desibbrg.org/images/66979260357237748184.png 
http://desibbrg.org/images/42421690841122866246.png

Media Info - 
Video
ID : 1
Format : AVC
Format/Info : Advanced Video Codec
Format profile : High@L4.1
Format settings, CABAC : Yes
Format settings, ReFrames : 7 frames
Muxing mode : Header stripping
Codec ID : V_MPEG4/ISO/AVC
Duration : 2h 6mn
Bit rate : 2 163 Kbps
Width : 1 280 pixels
Height : 544 pixels
Display aspect ratio : 2.35:1
Frame rate : 24.000 fps
Color space : YUV
Chroma subsampling : 4:2:0
Bit depth : 8 bits
Scan type : Progressive
Bits/(Pixel*Frame) : 0.129
Stream size : 1.87 GiB (85%)
Writing library : x264 core 110 r1820 fdcf2ae
Language : English
Default : Yes
Forced : No

Audio
ID : 2
Format : AC-3
Format/Info : Audio Coding 3
Mode extension : CM (complete main)
Muxing mode : Header stripping
Codec ID : A_AC3
Duration : 2h 6mn
Bit rate mode : Constant
Bit rate : 320 Kbps
Channel(s) : 6 channels
Channel positions : Front: L C R, Side: L R, LFE
Sampling rate : 48.0 KHz
Bit depth : 16 bits
Compression mode : Lossy
Stream size : 288 MiB (13%)
Language : English
Default : Yes
Forced : No

Ripper : NhaNc3

Seeding 24x7... Extreme Seeding...


Enjoy!
